<?xml version="1.0" encoding="UTF-8"?>
<svg id="flower" data-name="flower" xmlns="http://www.w3.org/2000/svg" viewBox="0 0 227.94 415.72">
  <g id="flower" data-name="flower">
    <g>
      <path d="m23.15,415.43c15.23-11.36,29.14-24.43,41.45-38.9s22.92-30.06,31.89-46.66c9.04-16.74,16.36-34.44,21.8-52.67s8.93-36.78,10.47-55.61,1.01-38.06-1.67-56.9c-.32-2.28-.68-4.55-1.07-6.82-.32-1.9-3.22-1.1-2.9.8,3.16,18.49,4.14,37.32,3.11,56.05s-4.07,37.07-8.95,55.05c-4.91,18.13-11.68,35.74-20.19,52.48-8.46,16.65-18.61,32.48-30.35,47.01s-25.01,27.79-39.64,39.38c-1.8,1.43-3.62,2.82-5.47,4.2-1.53,1.14-.04,3.75,1.52,2.59h0Z"/>
      <path d="m5.42,45.53c10.73,23.96,21.54,48.16,36.79,69.66,13.33,18.8,30.22,35.71,50.99,46.14s46.48,14.02,69.01,6.13c21.37-7.49,37.24-24.95,46.83-45.03,11.15-23.34,13.82-49.51,14.98-75.03.15-3.3.27-6.61.39-9.91.07-1.93-2.94-1.93-3,0-.91,25.71-2.32,52.13-11.87,76.33-7.81,19.78-21.41,38.15-40.83,47.69-21.07,10.35-46.53,8.97-67.83.07-21.03-8.79-38.52-24.7-52.21-42.65-15.34-20.12-26.33-43.12-36.69-66.08-1.33-2.94-2.65-5.89-3.97-8.84-.79-1.76-3.38-.24-2.59,1.52h0Z"/>
      <path d="m126.28,156.95c-11.49-14.8-23-29.65-33.08-45.47s-18.15-31.56-23.54-48.93c-3.01-9.69-5.06-19.67-5.83-29.79-.15-1.92-3.15-1.93-3,0,1.39,18.25,6.76,35.89,14.42,52.45s18.29,33,29.39,48.21c6.34,8.68,12.93,17.16,19.51,25.65,1.18,1.52,3.3-.61,2.12-2.12h0Z"/>
      <path d="m185.14,26.39c-.14,19.17-3.42,38.26-9.66,56.38-7.43,21.58-19.12,41.68-34.19,58.82-5.54,6.3-11.52,12.21-17.89,17.66-1.62,1.39.73,3.73,2.35,2.35,13.35-11.43,24.99-24.85,34.46-39.66,13.05-20.4,21.88-43.46,25.82-67.35,1.54-9.32,2.36-18.76,2.44-28.2.02-2.14-3.3-2.14-3.32,0h0Z"/>
      <path d="m125.87,159.72c1.61-32.75,3.21-65.49,4.82-98.24.45-9.14.9-18.29,1.34-27.43.1-2.1-3.16-2.09-3.26,0-1.61,32.75-3.21,65.49-4.82,98.24-.45,9.14-.9,18.29-1.34,27.43-.1,2.1,3.16,2.09,3.26,0h0Z"/>
      <path d="m222.14,43.76c7.73,0,7.74-12.01,0-12.01s-7.74,12.01,0,12.01h0Z"/>
      <path d="m188.47,36.74c7.73,0,7.74-12.01,0-12.01s-7.74,12.01,0,12.01h0Z"/>
      <path d="m130.8,37.74c7.73,0,7.74-12.01,0-12.01s-7.74,12.01,0,12.01h0Z"/>
      <path d="m61.47,35.07c7.73,0,7.74-12.01,0-12.01s-7.74,12.01,0,12.01h0Z"/>
      <path d="m51.3,74c7.73,0,7.74-12.01,0-12.01s-7.74,12.01,0,12.01h0Z"/>
      <path d="m5.8,48.77c7.73,0,7.74-12.01,0-12.01s-7.74,12.01,0,12.01h0Z"/>
      <path d="m48.14,101.63c6.52,0,6.53-10.13,0-10.13s-6.53,10.13,0,10.13h0Z"/>
      <path d="m107.8,64.89c3.97,0,3.97-6.16,0-6.16s-3.97,6.16,0,6.16h0Z"/>
      <path d="m159.47,51.44c7.73,0,7.74-12.01,0-12.01s-7.74,12.01,0,12.01h0Z"/>
      <path d="m208.14,87.53c7.73,0,7.74-12.01,0-12.01s-7.74,12.01,0,12.01h0Z"/>
      <path d="m86.8,67.76c7.23,0,7.24-11.24,0-11.24s-7.24,11.24,0,11.24h0Z"/>
      <path d="m96.8,32.48c4.83,0,4.84-7.51,0-7.51s-4.84,7.51,0,7.51h0Z"/>
      <path d="m154.8,18.36c7.73,0,7.74-12.01,0-12.01s-7.74,12.01,0,12.01h0Z"/>
      <path d="m208.8,22.62c6.76,0,6.78-10.51,0-10.51s-6.78,10.51,0,10.51h0Z"/>
      <path d="m36.8,48.44c7.73,0,7.74-12.01,0-12.01s-7.74,12.01,0,12.01h0Z"/>
      <path d="m123.14,19.03c7.73,0,7.74-12.01,0-12.01s-7.74,12.01,0,12.01h0Z"/>
      <path d="m180.47,12.01c7.73,0,7.74-12.01,0-12.01s-7.74,12.01,0,12.01h0Z"/>
      <path d="m127.2,166.17c13.16-5.17,25.49-12.21,36.63-20.92,14.13-11.04,26.13-24.76,35.28-40.18,3.56-6,6.66-12.26,9.33-18.71.74-1.78-2.16-2.56-2.9-.8-5.3,12.78-12.51,24.82-21.28,35.52-11.05,13.49-24.56,24.88-39.72,33.5-5.83,3.32-11.9,6.23-18.14,8.68-1.78.7-1,3.61.8,2.9h0Z"/>
      <path d="m50.08,73.98c3.99,15.51,10.59,30.38,19.53,43.66,10.32,15.33,23.68,28.51,39.18,38.58,5.56,3.61,11.39,6.81,17.42,9.56,2.08.95,3.91-2.14,1.81-3.09-12.23-5.58-23.61-12.99-33.62-21.96-14.29-12.81-25.68-28.64-33.44-46.19-3.07-6.95-5.53-14.16-7.42-21.52-.57-2.23-4.03-1.29-3.46.95h0Z"/>
      <path d="m128.11,125.47c14.16-17.13,24.37-37.37,29.57-58.99,1.21-5.05,2.13-10.15,2.82-15.3.11-.81-.77-1.49-1.5-1.5-.9,0-1.4.7-1.5,1.5-2.83,21.33-10.56,41.94-22.42,59.89-2.81,4.25-5.84,8.34-9.08,12.27-1.22,1.48.89,3.62,2.12,2.12h0Z"/>
      <path d="m87.71,69.17c5.29,17.28,14,33.41,25.58,47.3,2.82,3.39,5.82,6.63,8.96,9.73,1.38,1.36,3.5-.76,2.12-2.12-12.6-12.42-22.73-27.34-29.48-43.72-1.62-3.92-3.04-7.92-4.29-11.98-.56-1.84-3.46-1.06-2.9.8h0Z"/>
      <path d="m138.64,75.71c3.7,0,3.71-5.75,0-5.75s-3.71,5.75,0,5.75h0Z"/>
      <path d="m138.64,124.56c3.35,0,3.35-5.2,0-5.2s-3.35,5.2,0,5.2h0Z"/>
    </g>
  </g>
</svg>