<?xml version="1.0" standalone="no"?>
<!DOCTYPE svg PUBLIC "-//W3C//DTD SVG 20010904//EN"
 "http://www.w3.org/TR/2001/REC-SVG-20010904/DTD/svg10.dtd">
<svg version="1.0" xmlns="http://www.w3.org/2000/svg"
 width="433.000000pt" height="433.000000pt" viewBox="0 0 433.000000 433.000000"
 preserveAspectRatio="xMidYMid meet">
<metadata>
Created by potrace 1.14, written by Peter Selinger 2001-2017
</metadata>
<g transform="translate(0.000000,433.000000) scale(0.100000,-0.100000)"
fill="#000000" stroke="none">
<path d="M2627 3440 c1 -214 -1 -390 -4 -390 -3 0 -20 11 -37 24 -89 67 -344
173 -461 190 -22 4 -65 10 -95 16 -30 5 -127 7 -215 5 -133 -2 -177 -7 -259
-29 -351 -92 -561 -325 -555 -619 5 -277 183 -455 669 -672 58 -26 124 -56
147 -66 23 -10 45 -19 48 -19 3 0 80 -36 172 -80 418 -201 581 -390 568 -658
-12 -247 -189 -440 -470 -513 -106 -27 -337 -34 -448 -14 -168 31 -332 96
-478 190 -70 45 -207 174 -248 232 l-22 33 54 52 c80 79 129 203 121 304 -5
64 -13 110 -23 137 -6 15 -9 27 -6 27 11 0 -63 145 -118 230 -34 52 -67 104
-73 114 -13 25 -42 29 -53 8 -11 -23 -3 -42 23 -52 46 -17 173 -234 200 -343
46 -183 8 -317 -121 -430 -18 -16 -17 -8 12 70 19 48 38 113 43 143 14 79 13
216 -4 294 -7 36 -13 70 -13 74 5 33 -43 48 -55 17 -6 -17 2 -45 14 -45 29 0
48 -198 31 -310 -11 -71 -46 -188 -60 -203 -4 -4 -8 50 -8 120 -2 185 -49 353
-138 493 -16 25 -28 55 -26 67 3 27 -27 45 -52 32 -24 -14 -22 -21 18 -69 95
-113 176 -368 169 -530 -1 -25 -2 -62 -3 -83 -1 -46 -8 -43 -54 25 -31 46 -36
63 -41 130 -5 80 -51 235 -85 293 -10 16 -21 43 -25 58 -5 22 -12 28 -29 25
-30 -4 -37 -53 -9 -63 27 -8 93 -149 106 -226 15 -83 18 -124 8 -114 -35 36
-231 317 -234 337 -2 17 -9 23 -28 23 -20 0 -26 -6 -28 -27 -2 -20 1 -28 12
-28 9 0 26 -15 38 -34 13 -19 69 -98 125 -174 57 -77 103 -142 103 -145 0 -6
-87 11 -115 22 -85 34 -153 70 -177 94 -34 34 -63 32 -63 -3 0 -18 6 -25 20
-26 11 0 36 -10 55 -22 61 -38 174 -81 245 -92 38 -6 70 -12 70 -13 0 -1 14
-19 29 -41 l29 -38 -34 7 c-126 26 -304 89 -395 140 -77 43 -174 121 -174 140
0 23 -36 37 -50 20 -16 -19 -9 -49 14 -53 16 -3 36 -18 90 -67 77 -69 271
-152 486 -206 86 -21 92 -24 60 -30 -68 -11 -214 0 -285 22 -104 31 -205 87
-227 125 -14 23 -24 31 -38 27 -11 -3 -20 -12 -20 -19 0 -8 -1 -17 -2 -21 -5
-18 215 -127 302 -149 67 -18 248 -24 305 -11 28 7 28 6 -7 -13 -104 -56 -294
-62 -453 -15 -95 28 -103 31 -264 106 -113 53 -121 56 -121 35 0 -15 205 -114
313 -151 207 -69 391 -71 536 -7 l44 20 42 -56 c132 -179 341 -321 596 -406
93 -31 141 -42 259 -60 47 -8 263 -8 324 -1 129 16 291 71 391 134 148 93 260
239 301 393 10 34 21 67 25 72 5 5 313 9 743 9 712 -1 734 0 739 18 4 13 0 19
-11 20 -10 0 -340 1 -734 1 l-718 1 0 1329 0 1328 -117 0 -118 0 2 -390z
m-592 -203 c11 -2 38 -8 60 -11 179 -32 422 -139 511 -224 l22 -21 0 -636 0
-635 -61 48 c-130 103 -294 194 -592 327 -347 155 -504 246 -613 354 -139 139
-174 265 -128 459 9 41 64 126 108 169 84 82 230 149 372 172 52 8 284 7 321
-2z"/>
<path d="M727 1983 c-14 -13 -6 -41 12 -46 25 -6 31 0 31 30 0 22 -27 33 -43
16z"/>
<path d="M571 1936 c-15 -18 2 -56 24 -56 21 0 35 32 24 53 -12 21 -32 22 -48
3z"/>
<path d="M493 1833 c-20 -8 -16 -50 6 -56 27 -7 43 7 39 34 -3 24 -21 32 -45
22z"/>
<path d="M357 1718 c-8 -25 5 -48 29 -48 28 0 37 13 29 40 -7 22 -51 28 -58 8z"/>
<path d="M317 1564 c-14 -15 -6 -34 14 -34 14 0 19 5 17 17 -3 18 -20 27 -31
17z"/>
<path d="M634 1516 c-8 -22 3 -33 18 -18 9 9 9 15 0 24 -9 9 -13 7 -18 -6z"/>
<path d="M472 1456 c1 -10 8 -17 13 -17 15 1 12 24 -3 29 -9 3 -13 -2 -10 -12z"/>
<path d="M109 1314 c-9 -11 -10 -20 -3 -31 15 -25 44 -24 53 0 15 39 -23 63
-50 31z"/>
<path d="M795 1320 c-4 -6 -3 -16 3 -22 6 -6 12 -6 17 2 4 6 3 16 -3 22 -6 6
-12 6 -17 -2z"/>
<path d="M334 1125 c-8 -19 3 -35 25 -35 18 0 35 33 23 44 -11 12 -43 6 -48
-9z"/>
<path d="M14 1035 c-7 -30 2 -45 26 -45 22 0 37 37 21 53 -20 20 -41 16 -47
-8z"/>
</g>
</svg>
