<?xml version="1.0" encoding="UTF-8"?>
<svg id="Layer_2" data-name="Layer 2" xmlns="http://www.w3.org/2000/svg" viewBox="0 0 633 632.5">
  <defs>
    <style>
      .cls-1 {
        fill: #fee773;
      }
    </style>
  </defs>
  <g id="Layer_1-2" data-name="Layer 1">
    <ellipse id="Ellipse_2-2" data-name="Ellipse 2-2" class="cls-1" cx="316.5" cy="316.25" rx="316.5" ry="316.25"/>
    <g id="Layer_1-3" data-name="Layer 1">
      <g id="Group_1" data-name="Group 1">
        <path id="Path_1" data-name="Path 1" d="m286.33,624.68c15.97-12.11,30.55-26.01,43.46-41.44,12.83-15.33,24.03-32,33.44-49.71,9.49-17.85,17.15-36.65,22.86-56.1,5.67-19.3,9.35-39.16,10.98-59.24,1.63-20.21,1.03-40.53-1.77-60.61-.34-2.41-.71-4.83-1.12-7.26-.34-2.03-3.38-1.16-3.03.86,3.28,19.71,4.37,39.74,3.26,59.7-1.1,19.83-4.25,39.48-9.38,58.64-5.16,19.32-12.26,38.05-21.17,55.89-8.86,17.78-19.53,34.56-31.83,50.08-12.29,15.5-26.23,29.57-41.57,41.95-1.89,1.52-3.8,3.01-5.74,4.48-1.6,1.2-.04,3.99,1.59,2.76h.02Z"/>
        <path id="Path_2" data-name="Path 2" d="m267.74,230.7c10.47,26.04,23.43,50.96,38.71,74.4,13.69,20.62,32.13,37.5,53.72,49.16,22.35,11.84,48.42,14.07,72.4,6.19,21.78-8.79,39.28-25.97,48.7-47.81,11.68-24.85,14.49-52.73,15.71-79.92.16-3.51.28-7.04.41-10.55.07-2.06-3.07-2.06-3.15,0-.95,27.32-2.43,55.38-12.38,81.1-7.61,21.81-22.9,39.98-42.9,50.99-22.56,10.24-48.32,10.3-70.92.16-21.81-9.92-40.67-25.51-54.68-45.21-15.57-22.04-28.59-45.83-38.81-70.9-1.36-3.08-2.73-6.16-4.09-9.25-.83-1.88-3.55-.25-2.72,1.61h-.01Z"/>
        <path id="Path_3" data-name="Path 3" d="m394.47,349.37c-12.05-15.77-24.12-31.57-34.69-48.43-10.5-16.16-18.81-33.7-24.69-52.14-3.2-10.3-5.25-20.94-6.11-31.7-.16-2.04-3.3-2.06-3.15,0,1.73,19.44,6.87,38.4,15.18,55.99,8.6,18.04,18.91,35.19,30.76,51.2,6.65,9.23,13.56,18.28,20.46,27.31,1.24,1.62,3.45-.65,2.22-2.26h0v.04Z"/>
        <path id="Path_4" data-name="Path 4" d="m456.21,210.28c-.39,54.52-24.01,106.17-64.74,141.56-1.7,1.48.76,3.97,2.46,2.5,41.37-36.06,65.35-88.61,65.77-144.06-.06-.98-.88-1.72-1.84-1.67-.88.05-1.58.77-1.64,1.67h0Z"/>
        <path id="Path_5" data-name="Path 5" d="m394.05,352.33c1.69-34.88,3.37-69.76,5.05-104.64.47-9.74.94-19.48,1.41-29.22.11-2.24-3.3-2.23-3.42,0-1.69,34.88-3.37,69.76-5.05,104.64-.47,9.74-.94,19.48-1.41,29.22-.11,2.24,3.3,2.23,3.42,0h0Z"/>
        <path id="Path_6" data-name="Path 6" d="m494.99,228.84c3.47-.11,6.21-3.06,6.1-6.6-.1-3.39-2.77-6.11-6.1-6.21-3.47.11-6.21,3.06-6.1,6.6.1,3.39,2.77,6.11,6.1,6.21Z"/>
        <path id="Path_7" data-name="Path 7" d="m459.69,221.36c3.47-.11,6.21-3.06,6.1-6.6-.1-3.39-2.77-6.11-6.1-6.21-3.47.11-6.21,3.06-6.1,6.6.1,3.39,2.77,6.11,6.1,6.21Z"/>
        <path id="Path_8" data-name="Path 8" d="m399.22,222.43c3.47-.11,6.21-3.06,6.1-6.6-.1-3.39-2.77-6.11-6.1-6.21-3.47.11-6.21,3.06-6.1,6.6.1,3.39,2.77,6.11,6.1,6.21Z"/>
        <path id="Path_9" data-name="Path 9" d="m326.51,219.56c3.47-.11,6.21-3.06,6.1-6.6-.1-3.39-2.77-6.11-6.1-6.21-3.47.11-6.21,3.06-6.1,6.6.1,3.39,2.77,6.11,6.1,6.21Z"/>
        <path id="Path_10" data-name="Path 10" d="m315.86,261.02c3.47-.11,6.21-3.06,6.1-6.6-.1-3.39-2.77-6.11-6.1-6.21-3.47.11-6.21,3.06-6.1,6.6.1,3.39,2.77,6.11,6.1,6.21Z"/>
        <path id="Path_11" data-name="Path 11" d="m268.15,234.18c3.47-.11,6.21-3.06,6.1-6.6-.1-3.39-2.77-6.11-6.1-6.21-3.47.11-6.21,3.06-6.1,6.6.1,3.39,2.77,6.11,6.1,6.21Z"/>
        <path id="Path_12" data-name="Path 12" d="m312.54,290.45c2.93-.24,5.11-2.86,4.87-5.85-.21-2.65-2.27-4.74-4.87-4.96-2.93.24-5.11,2.86-4.87,5.85.21,2.65,2.27,4.74,4.87,4.96Z"/>
        <path id="Path_13" data-name="Path 13" d="m375.1,251.32c1.78,0,3.23-1.48,3.23-3.29,0-1.81-1.45-3.28-3.23-3.28-1.78,0-3.23,1.48-3.23,3.29,0,1.81,1.45,3.28,3.23,3.28Z"/>
        <path id="Path_14" data-name="Path 14" d="m429.27,236.99c3.47-.11,6.21-3.06,6.1-6.6-.1-3.39-2.77-6.11-6.1-6.21-3.47.11-6.21,3.06-6.1,6.6.1,3.39,2.77,6.11,6.1,6.21Z"/>
        <path id="Path_15" data-name="Path 15" d="m480.31,275.44c3.47-.11,6.21-3.06,6.1-6.6-.1-3.39-2.77-6.11-6.1-6.21-3.47.11-6.21,3.06-6.1,6.6.1,3.39,2.77,6.11,6.1,6.21Z"/>
        <path id="Path_16" data-name="Path 16" d="m353.09,254.38c3.25-.35,5.61-3.31,5.26-6.62-.29-2.83-2.49-5.06-5.26-5.36-3.25.11-5.8,2.87-5.7,6.18.1,3.16,2.59,5.7,5.7,5.8Z"/>
        <path id="Path_17" data-name="Path 17" d="m363.57,216.8c2.17-.09,3.86-1.95,3.78-4.16-.08-2.09-1.73-3.77-3.78-3.85-2.17.09-3.86,1.95-3.78,4.16.08,2.09,1.73,3.77,3.78,3.85Z"/>
        <path id="Path_18" data-name="Path 18" d="m424.39,201.76c3.47-.11,6.21-3.06,6.1-6.6-.1-3.39-2.77-6.11-6.1-6.21-3.47.11-6.21,3.06-6.1,6.6.1,3.39,2.77,6.11,6.1,6.21Z"/>
        <path id="Path_19" data-name="Path 19" d="m481.01,206.3c3.04-.1,5.42-2.69,5.32-5.79-.1-2.95-2.42-5.32-5.32-5.42-3.04.1-5.42,2.69-5.32,5.79.1,2.95,2.42,5.32,5.32,5.42Z"/>
        <path id="Path_20" data-name="Path 20" d="m300.65,233.8c3.47-.11,6.21-3.06,6.1-6.6-.1-3.39-2.77-6.11-6.1-6.21-3.47.11-6.21,3.06-6.1,6.6.1,3.39,2.77,6.11,6.1,6.21Z"/>
        <path id="Path_21" data-name="Path 21" d="m391.18,202.48c3.47-.11,6.21-3.06,6.1-6.6-.1-3.39-2.77-6.11-6.1-6.21-3.47.11-6.21,3.06-6.1,6.6.1,3.39,2.77,6.11,6.1,6.21Z"/>
        <path id="Path_22" data-name="Path 22" d="m451.3,195c3.47-.11,6.21-3.06,6.1-6.6-.1-3.39-2.77-6.11-6.1-6.21-3.47.11-6.21,3.06-6.1,6.6.1,3.39,2.77,6.11,6.1,6.21Z"/>
        <path id="Path_23" data-name="Path 23" d="m395.44,359.2c13.79-5.51,26.73-13.02,38.41-22.29,14.83-11.8,27.38-26.3,37-42.77,3.72-6.4,6.99-13.06,9.78-19.93.77-1.9-2.27-2.73-3.03-.86-15.53,37.88-45.47,67.74-82.99,82.76-1.87.75-1.05,3.84.84,3.08h-.02Z"/>
        <path id="Path_24" data-name="Path 24" d="m314.57,261c4.16,16.49,11.04,32.15,20.34,46.3,10.84,16.41,24.81,30.43,41.09,41.23,5.87,3.88,12.02,7.3,18.39,10.24,2.18,1.01,4.09-2.28,1.9-3.3-12.94-5.98-24.91-13.94-35.5-23.6-14.92-13.7-26.81-30.45-34.9-49.17-3.17-7.35-5.74-14.95-7.69-22.73-.27-1.02-1.31-1.62-2.31-1.34s-1.59,1.33-1.31,2.35h0v.02Z"/>
        <path id="Path_25" data-name="Path 25" d="m396.39,315.84c14.86-18.22,25.44-39.64,30.96-62.65,1.28-5.43,2.28-10.93,2.99-16.46.11-.87-.8-1.59-1.57-1.6-.86.03-1.55.73-1.57,1.6-3.72,28.27-15.17,54.9-33.03,76.86-1.28,1.58.93,3.86,2.22,2.26h0Z"/>
        <path id="Path_26" data-name="Path 26" d="m354.03,255.89c5.58,18.51,14.74,35.7,26.95,50.55,2.93,3.55,6.01,6.95,9.26,10.2,1.45,1.44,3.67-.81,2.22-2.26-13.22-13.21-23.71-28.98-30.84-46.38-1.72-4.22-3.24-8.55-4.56-12.93-.59-1.96-3.63-1.13-3.03.86h0v-.02Z"/>
        <path id="Path_27" data-name="Path 27" d="m407.43,262.84c1.66-.08,2.95-1.51,2.87-3.2-.07-1.59-1.32-2.86-2.87-2.93-1.66.08-2.95,1.51-2.87,3.2.07,1.59,1.32,2.86,2.87,2.93Z"/>
        <path id="Path_28" data-name="Path 28" d="m407.43,314.87c1.51,0,2.72-1.25,2.72-2.78,0-1.53-1.22-2.77-2.72-2.77-1.51,0-2.72,1.25-2.72,2.78,0,1.53,1.22,2.77,2.72,2.77Z"/>
      </g>
    </g>
  </g>
</svg>